<mxfile host="Electron" modified="2023-10-13T10:43:27.833Z" agent="Mozilla/5.0 (Windows NT 10.0; Win64; x64) AppleWebKit/537.36 (KHTML, like Gecko) draw.io/22.0.0 Chrome/114.0.5735.289 Electron/25.8.3 Safari/537.36" etag="r4IIIfs7uK-Ts1Gb8cEq" version="22.0.0" type="device">
  <diagram name="Page-1" id="31Pi6cIdFmo2tFUd0mrd">
    <mxGraphModel dx="792" dy="1187" grid="1" gridSize="10" guides="1" tooltips="1" connect="1" arrows="1" fold="1" page="1" pageScale="1" pageWidth="827" pageHeight="1169" math="0" shadow="0">
      <root>
        <mxCell id="0" />
        <mxCell id="1" parent="0" />
        <mxCell id="I19upmO_wj5LRQHIAYSO-1" value="KStream" style="rounded=1;whiteSpace=wrap;html=1;sketch=1;hachureGap=4;jiggle=2;curveFitting=1;fontFamily=Architects Daughter;fontSource=https%3A%2F%2Ffonts.googleapis.com%2Fcss%3Ffamily%3DArchitects%2BDaughter;fontSize=20;fillColor=#ffe6cc;strokeColor=#d79b00;" vertex="1" parent="1">
          <mxGeometry x="210" y="160" width="120" height="60" as="geometry" />
        </mxCell>
        <mxCell id="I19upmO_wj5LRQHIAYSO-9" style="edgeStyle=orthogonalEdgeStyle;rounded=0;sketch=1;hachureGap=4;jiggle=2;curveFitting=1;orthogonalLoop=1;jettySize=auto;html=1;exitX=0.5;exitY=0;exitDx=0;exitDy=0;entryX=0.5;entryY=1;entryDx=0;entryDy=0;fontFamily=Architects Daughter;fontSource=https%3A%2F%2Ffonts.googleapis.com%2Fcss%3Ffamily%3DArchitects%2BDaughter;fontSize=16;" edge="1" parent="1" source="I19upmO_wj5LRQHIAYSO-2" target="I19upmO_wj5LRQHIAYSO-1">
          <mxGeometry relative="1" as="geometry" />
        </mxCell>
        <mxCell id="I19upmO_wj5LRQHIAYSO-10" value="&lt;b&gt;&lt;font style=&quot;font-size: 15px;&quot;&gt;toStream()&lt;/font&gt;&lt;/b&gt;" style="edgeLabel;html=1;align=center;verticalAlign=middle;resizable=0;points=[];fontSize=20;fontFamily=Architects Daughter;" vertex="1" connectable="0" parent="I19upmO_wj5LRQHIAYSO-9">
          <mxGeometry x="-0.0933" y="-2" relative="1" as="geometry">
            <mxPoint as="offset" />
          </mxGeometry>
        </mxCell>
        <mxCell id="I19upmO_wj5LRQHIAYSO-11" style="edgeStyle=orthogonalEdgeStyle;rounded=0;sketch=1;hachureGap=4;jiggle=2;curveFitting=1;orthogonalLoop=1;jettySize=auto;html=1;exitX=1;exitY=0.25;exitDx=0;exitDy=0;entryX=0;entryY=0.25;entryDx=0;entryDy=0;fontFamily=Architects Daughter;fontSource=https%3A%2F%2Ffonts.googleapis.com%2Fcss%3Ffamily%3DArchitects%2BDaughter;fontSize=16;" edge="1" parent="1" source="I19upmO_wj5LRQHIAYSO-2" target="I19upmO_wj5LRQHIAYSO-4">
          <mxGeometry relative="1" as="geometry" />
        </mxCell>
        <mxCell id="I19upmO_wj5LRQHIAYSO-13" value="&lt;b&gt;&lt;font style=&quot;font-size: 15px;&quot;&gt;groupBy()&lt;/font&gt;&lt;/b&gt;" style="edgeLabel;html=1;align=center;verticalAlign=middle;resizable=0;points=[];fontSize=20;fontFamily=Architects Daughter;" vertex="1" connectable="0" parent="I19upmO_wj5LRQHIAYSO-11">
          <mxGeometry x="0.0091" relative="1" as="geometry">
            <mxPoint x="9" y="-15" as="offset" />
          </mxGeometry>
        </mxCell>
        <mxCell id="I19upmO_wj5LRQHIAYSO-2" value="KTable" style="rounded=1;whiteSpace=wrap;html=1;sketch=1;hachureGap=4;jiggle=2;curveFitting=1;fontFamily=Architects Daughter;fontSource=https%3A%2F%2Ffonts.googleapis.com%2Fcss%3Ffamily%3DArchitects%2BDaughter;fontSize=20;fillColor=#ffe6cc;strokeColor=#d79b00;" vertex="1" parent="1">
          <mxGeometry x="210" y="370" width="120" height="60" as="geometry" />
        </mxCell>
        <mxCell id="I19upmO_wj5LRQHIAYSO-3" value="KGroupedStream" style="rounded=1;whiteSpace=wrap;html=1;sketch=1;hachureGap=4;jiggle=2;curveFitting=1;fontFamily=Architects Daughter;fontSource=https%3A%2F%2Ffonts.googleapis.com%2Fcss%3Ffamily%3DArchitects%2BDaughter;fontSize=20;fillColor=#ffe6cc;strokeColor=#d79b00;" vertex="1" parent="1">
          <mxGeometry x="550" y="160" width="180" height="60" as="geometry" />
        </mxCell>
        <mxCell id="I19upmO_wj5LRQHIAYSO-12" style="edgeStyle=orthogonalEdgeStyle;rounded=0;sketch=1;hachureGap=4;jiggle=2;curveFitting=1;orthogonalLoop=1;jettySize=auto;html=1;exitX=0;exitY=0.75;exitDx=0;exitDy=0;entryX=1;entryY=0.75;entryDx=0;entryDy=0;fontFamily=Architects Daughter;fontSource=https%3A%2F%2Ffonts.googleapis.com%2Fcss%3Ffamily%3DArchitects%2BDaughter;fontSize=16;" edge="1" parent="1" source="I19upmO_wj5LRQHIAYSO-4" target="I19upmO_wj5LRQHIAYSO-2">
          <mxGeometry relative="1" as="geometry" />
        </mxCell>
        <mxCell id="I19upmO_wj5LRQHIAYSO-14" value="&lt;b style=&quot;font-size: 15px;&quot;&gt;count()&lt;br style=&quot;font-size: 15px;&quot;&gt;reduce()&lt;br&gt;aggregate()&lt;br&gt;&lt;/b&gt;" style="edgeLabel;html=1;align=center;verticalAlign=middle;resizable=0;points=[];fontSize=15;fontFamily=Architects Daughter;" vertex="1" connectable="0" parent="I19upmO_wj5LRQHIAYSO-12">
          <mxGeometry x="-0.1273" y="1" relative="1" as="geometry">
            <mxPoint x="6" y="34" as="offset" />
          </mxGeometry>
        </mxCell>
        <mxCell id="I19upmO_wj5LRQHIAYSO-4" value="KGroupedTable" style="rounded=1;whiteSpace=wrap;html=1;sketch=1;hachureGap=4;jiggle=2;curveFitting=1;fontFamily=Architects Daughter;fontSource=https%3A%2F%2Ffonts.googleapis.com%2Fcss%3Ffamily%3DArchitects%2BDaughter;fontSize=20;fillColor=#ffe6cc;strokeColor=#d79b00;" vertex="1" parent="1">
          <mxGeometry x="550" y="370" width="180" height="60" as="geometry" />
        </mxCell>
        <mxCell id="I19upmO_wj5LRQHIAYSO-5" value="" style="endArrow=classic;html=1;rounded=0;sketch=1;hachureGap=4;jiggle=2;curveFitting=1;fontFamily=Architects Daughter;fontSource=https%3A%2F%2Ffonts.googleapis.com%2Fcss%3Ffamily%3DArchitects%2BDaughter;fontSize=16;exitX=1;exitY=0.5;exitDx=0;exitDy=0;entryX=0;entryY=0.5;entryDx=0;entryDy=0;" edge="1" parent="1" source="I19upmO_wj5LRQHIAYSO-1" target="I19upmO_wj5LRQHIAYSO-3">
          <mxGeometry width="50" height="50" relative="1" as="geometry">
            <mxPoint x="430" y="630" as="sourcePoint" />
            <mxPoint x="480" y="580" as="targetPoint" />
          </mxGeometry>
        </mxCell>
        <mxCell id="I19upmO_wj5LRQHIAYSO-6" value="&lt;b style=&quot;font-size: 15px;&quot;&gt;groupBy()&lt;br&gt;groupByKey()&lt;/b&gt;" style="edgeLabel;html=1;align=center;verticalAlign=middle;resizable=0;points=[];fontSize=20;fontFamily=Architects Daughter;" vertex="1" connectable="0" parent="I19upmO_wj5LRQHIAYSO-5">
          <mxGeometry x="0.0091" y="-3" relative="1" as="geometry">
            <mxPoint as="offset" />
          </mxGeometry>
        </mxCell>
        <mxCell id="I19upmO_wj5LRQHIAYSO-7" value="" style="endArrow=classic;html=1;rounded=0;sketch=1;hachureGap=4;jiggle=2;curveFitting=1;fontFamily=Architects Daughter;fontSource=https%3A%2F%2Ffonts.googleapis.com%2Fcss%3Ffamily%3DArchitects%2BDaughter;fontSize=16;exitX=0;exitY=1;exitDx=0;exitDy=0;entryX=1;entryY=0;entryDx=0;entryDy=0;" edge="1" parent="1">
          <mxGeometry width="50" height="50" relative="1" as="geometry">
            <mxPoint x="551" y="220" as="sourcePoint" />
            <mxPoint x="331" y="370" as="targetPoint" />
          </mxGeometry>
        </mxCell>
        <mxCell id="I19upmO_wj5LRQHIAYSO-8" value="&lt;b style=&quot;font-size: 15px;&quot;&gt;count()&lt;br&gt;reduce()&lt;br&gt;aggregate()&lt;br&gt;&lt;/b&gt;" style="edgeLabel;html=1;align=center;verticalAlign=middle;resizable=0;points=[];fontSize=20;fontFamily=Architects Daughter;" vertex="1" connectable="0" parent="I19upmO_wj5LRQHIAYSO-7">
          <mxGeometry x="-0.1664" y="3" relative="1" as="geometry">
            <mxPoint as="offset" />
          </mxGeometry>
        </mxCell>
        <mxCell id="I19upmO_wj5LRQHIAYSO-15" value="" style="curved=1;endArrow=classic;html=1;rounded=0;sketch=1;hachureGap=4;jiggle=2;curveFitting=1;fontFamily=Architects Daughter;fontSource=https%3A%2F%2Ffonts.googleapis.com%2Fcss%3Ffamily%3DArchitects%2BDaughter;fontSize=16;" edge="1" parent="1">
          <mxGeometry width="50" height="50" relative="1" as="geometry">
            <mxPoint x="200" y="190" as="sourcePoint" />
            <mxPoint x="210" y="150" as="targetPoint" />
            <Array as="points">
              <mxPoint x="120" y="260" />
              <mxPoint x="70" y="120" />
              <mxPoint x="150" y="80" />
            </Array>
          </mxGeometry>
        </mxCell>
        <mxCell id="I19upmO_wj5LRQHIAYSO-17" value="&lt;font style=&quot;font-size: 15px;&quot;&gt;&lt;b&gt;join()&lt;br&gt;transform()&lt;/b&gt;&lt;/font&gt;" style="edgeLabel;html=1;align=center;verticalAlign=middle;resizable=0;points=[];fontSize=20;fontFamily=Architects Daughter;" vertex="1" connectable="0" parent="I19upmO_wj5LRQHIAYSO-15">
          <mxGeometry x="0.4896" y="-7" relative="1" as="geometry">
            <mxPoint x="4" y="45" as="offset" />
          </mxGeometry>
        </mxCell>
        <mxCell id="I19upmO_wj5LRQHIAYSO-16" value="" style="curved=1;endArrow=classic;html=1;rounded=0;sketch=1;hachureGap=4;jiggle=2;curveFitting=1;fontFamily=Architects Daughter;fontSource=https%3A%2F%2Ffonts.googleapis.com%2Fcss%3Ffamily%3DArchitects%2BDaughter;fontSize=16;" edge="1" parent="1">
          <mxGeometry width="50" height="50" relative="1" as="geometry">
            <mxPoint x="200" y="400" as="sourcePoint" />
            <mxPoint x="210" y="360" as="targetPoint" />
            <Array as="points">
              <mxPoint x="120" y="470" />
              <mxPoint x="70" y="330" />
              <mxPoint x="150" y="290" />
            </Array>
          </mxGeometry>
        </mxCell>
        <mxCell id="I19upmO_wj5LRQHIAYSO-18" value="&lt;font style=&quot;font-size: 15px;&quot;&gt;&lt;b&gt;join()&lt;/b&gt;&lt;/font&gt;" style="edgeLabel;html=1;align=center;verticalAlign=middle;resizable=0;points=[];fontSize=20;fontFamily=Architects Daughter;" vertex="1" connectable="0" parent="1">
          <mxGeometry x="140.00425654267733" y="369.9991096499105" as="geometry" />
        </mxCell>
      </root>
    </mxGraphModel>
  </diagram>
</mxfile>
